# xmcd
#
# Track frame offsets: 
#        150
#        18310
#        34620
#        62445
#        83400
#        107262
#        136102
#        157902
#        170407
#        197742
#        218425
#        239272
#        266782
#
# Disc length: 3955 seconds
#
# Revision: 1
# Processed by: cddbd v1.5.2PL0 Copyright (c) Steve Scherf et al.
# Submitted via: ExactAudioCopy v1.3
#
DISCID=940f710d
DTITLE=Speech - Down South Produckshuns
DYEAR=2002
DGENRE=Rap
TTITLE0=Take The Slack
TTITLE1=The New Sound (The Hip-Hop Hillbilly)
TTITLE2=We Can Conquer
TTITLE3=No One Like You
TTITLE4=Ain't It Bout Time (Talk Things Out)
TTITLE5=Put Yo Thing Down (Stop, Look and Listen)
TTITLE6=Ain't Nothing New But You (Remix) (feat. India Arie)
TTITLE7=Nasty Vibe
TTITLE8=Scandal
TTITLE9=Braided Hair (feat. 1 Giant Leap and Neneh Cherry)
TTITLE10=Catch The Fire
TTITLE11=Shine
TTITLE12=Walking In The Sun
EXTD=
EXTT0=
EXTT1=
EXTT2=
EXTT3=
EXTT4=
EXTT5=
EXTT6=
EXTT7=
EXTT8=
EXTT9=
EXTT10=
EXTT11=
EXTT12=
PLAYORDER=
